<svg width="133" height="40" viewBox="0 0 133 40" fill="none" xmlns="http://www.w3.org/2000/svg">
<g clip-path="url(#clip0_104_2289)">
<path d="M0 5.33333C0 2.38781 2.3536 0 5.25692 0H127.743C130.646 0 133 2.38782 133 5.33333V34.6667C133 37.6122 130.646 40 127.743 40H5.25692C2.3536 40 0 37.6122 0 34.6667V5.33333Z" fill="black"/>
<path fill-rule="evenodd" clip-rule="evenodd" d="M0 34.6667V5.33333C0 2.38782 2.3536 0 5.25692 0H127.743C130.646 0 133 2.38781 133 5.33333V34.6667C133 37.6122 130.646 40 127.743 40H5.25692C2.3536 40 0 37.6122 0 34.6667ZM0.788538 34.6667V5.33333C0.788538 2.82964 2.7891 0.8 5.25692 0.8H127.743C130.211 0.8 132.211 2.82964 132.211 5.33333V34.6667C132.211 37.1704 130.211 39.2 127.743 39.2H5.25692C2.7891 39.2 0.788538 37.1704 0.788538 34.6667Z" fill="white" fill-opacity="0.3"/>
<path fill-rule="evenodd" clip-rule="evenodd" d="M16.6001 7.33337C11.4702 7.33337 9.59387 9.23664 9.59387 14.4401V25.56C9.59387 30.7634 11.4702 32.6667 16.6001 32.6667H27.5546C32.6844 32.6667 34.5642 30.7634 34.5642 25.56V14.4401C34.5642 9.23664 32.6879 7.33337 27.558 7.33337H16.6001Z" fill="url(#paint0_linear_104_2289)"/>
<path fill-rule="evenodd" clip-rule="evenodd" d="M20.4858 22.0261H21.4883L20.9854 20.8395L20.4858 22.0261ZM20.239 22.6241L19.9415 23.3146H19.2644L20.7044 20.0002H21.2896L22.7238 23.3146H22.0286L21.735 22.6241H20.239ZM31.1353 23.3122H31.7897V20H31.1353V23.3122ZM28.5305 21.8893H29.7368V21.2854H28.5305V20.6066H30.2817V20.0024H27.8762V23.3144H30.3447V22.7103H28.5305V21.8893ZM25.9301 22.2807L25.1881 20H24.6466L23.9047 22.2807L23.1826 20.0018H22.4765L23.6161 23.3164H24.165L24.9081 21.1392L25.6513 23.3164H26.205L27.3415 20.0018H26.6538L25.9301 22.2807ZM18.2653 21.8985C18.2653 22.4376 18.0014 22.7258 17.5222 22.7258C17.0403 22.7258 16.775 22.4293 16.775 21.8755V20.0022H16.1117V21.8985C16.1117 22.8312 16.6227 23.3661 17.5131 23.3661C18.4125 23.3661 18.928 22.821 18.928 21.8708V20.0002H18.2653V21.8985ZM14.5292 20.0002H15.1921V23.3166H14.5292V21.9697H13.0316V23.3166H12.3683V20.0002H13.0316V21.3379H14.5292V20.0002Z" fill="white"/>
<path fill-rule="evenodd" clip-rule="evenodd" d="M22.0791 15.7778C19.7841 15.7778 17.9174 13.8838 17.9174 11.5556H18.5052C18.5052 13.5547 20.1086 15.1812 22.0791 15.1812C24.0496 15.1812 25.653 13.5547 25.653 11.5556H26.2408C26.2408 13.8838 24.3739 15.7778 22.0791 15.7778Z" fill="white"/>
<path d="M47.8975 29.8666L46.7732 26.6948H42.4686L41.3674 29.8666H39.4269L43.6391 18.3979H45.6412L49.8534 29.8666H47.8975ZM46.2881 25.0854L45.2331 21.976C45.1561 21.7677 45.0483 21.4396 44.9097 20.9916C44.7762 20.5437 44.6838 20.2156 44.6325 20.0073C44.4939 20.6479 44.2911 21.3484 44.0241 22.1088L43.0076 25.0854H46.2881Z" fill="white"/>
<path d="M55.2306 30.0229C54.1525 30.0229 53.3157 29.6297 52.7202 28.8432H52.6124C52.6843 29.5724 52.7202 30.0151 52.7202 30.1713V33.7104H50.9106V21.226H52.3737C52.4148 21.3875 52.4995 21.7729 52.6278 22.3823H52.7202C53.2849 21.5073 54.132 21.0698 55.2614 21.0698C56.3241 21.0698 57.1506 21.4604 57.741 22.2416C58.3365 23.0229 58.6342 24.1192 58.6342 25.5307C58.6342 26.9422 58.3314 28.0437 57.7256 28.8354C57.1249 29.6271 56.2933 30.0229 55.2306 30.0229ZM54.7917 22.5698C54.0729 22.5698 53.5467 22.7833 53.213 23.2104C52.8845 23.6375 52.7202 24.3198 52.7202 25.2573V25.5307C52.7202 26.5828 52.8845 27.3458 53.213 27.8198C53.5416 28.2885 54.0781 28.5229 54.8225 28.5229C55.4488 28.5229 55.9313 28.2625 56.2702 27.7416C56.609 27.2208 56.7784 26.4786 56.7784 25.5151C56.7784 24.5463 56.609 23.8146 56.2702 23.3198C55.9365 22.8198 55.4436 22.5698 54.7917 22.5698Z" fill="white"/>
<path d="M64.8199 30.0229C63.7419 30.0229 62.9051 29.6297 62.3096 28.8432H62.2018C62.2736 29.5724 62.3096 30.0151 62.3096 30.1713V33.7104H60.4999V21.226H61.963C62.0041 21.3875 62.0888 21.7729 62.2172 22.3823H62.3096C62.8743 21.5073 63.7213 21.0698 64.8507 21.0698C65.9134 21.0698 66.74 21.4604 67.3303 22.2416C67.9258 23.0229 68.2236 24.1192 68.2236 25.5307C68.2236 26.9422 67.9207 28.0437 67.3149 28.8354C66.7143 29.6271 65.8826 30.0229 64.8199 30.0229ZM64.381 22.5698C63.6623 22.5698 63.1361 22.7833 62.8024 23.2104C62.4738 23.6375 62.3096 24.3198 62.3096 25.2573V25.5307C62.3096 26.5828 62.4738 27.3458 62.8024 27.8198C63.131 28.2885 63.6674 28.5229 64.4118 28.5229C65.0381 28.5229 65.5207 28.2625 65.8595 27.7416C66.1983 27.2208 66.3678 26.4786 66.3678 25.5151C66.3678 24.5463 66.1983 23.8146 65.8595 23.3198C65.5258 22.8198 65.033 22.5698 64.381 22.5698Z" fill="white"/>
<path d="M74.8867 23.6713H79.0296V29.4057C78.352 29.6297 77.7 29.7885 77.0737 29.8823C76.4525 29.976 75.78 30.0229 75.0562 30.0229C73.3518 30.0229 72.0375 29.5125 71.1135 28.4916C70.1894 27.4656 69.7274 26.0203 69.7274 24.1557C69.7274 22.3172 70.2484 20.8797 71.2906 19.8432C72.3327 18.8015 73.7676 18.2807 75.5952 18.2807C76.7708 18.2807 77.8848 18.5099 78.9372 18.9682L78.2904 20.5229C77.3766 20.0958 76.4628 19.8823 75.549 19.8823C74.3477 19.8823 73.398 20.2651 72.6998 21.0307C72.0016 21.7963 71.6525 22.8432 71.6525 24.1713C71.6525 25.5672 71.9657 26.6297 72.592 27.3588C73.2234 28.0828 74.1295 28.4448 75.3103 28.4448C75.9058 28.4448 76.5424 28.3692 77.22 28.2182V25.2729H74.8867V23.6713Z" fill="white"/>
<path d="M86.64 29.8666L86.278 28.6635H86.2164C85.8057 29.1896 85.3925 29.5489 84.9766 29.7416C84.5608 29.9291 84.0269 30.0229 83.3749 30.0229C82.5381 30.0229 81.8836 29.7937 81.4113 29.3354C80.9441 28.8771 80.7105 28.2286 80.7105 27.3901C80.7105 26.4995 81.0365 25.8276 81.6885 25.3745C82.3405 24.9213 83.3338 24.6739 84.6686 24.6323L86.1394 24.5854V24.1245C86.1394 23.5724 86.0111 23.1609 85.7544 22.8901C85.5028 22.614 85.1101 22.476 84.5762 22.476C84.1398 22.476 83.7214 22.5411 83.321 22.6713C82.9206 22.8015 82.5356 22.9552 82.1659 23.1323L81.5807 21.8198C82.0427 21.575 82.5484 21.3901 83.0977 21.2651C83.647 21.1349 84.1655 21.0698 84.6532 21.0698C85.7364 21.0698 86.5527 21.3093 87.102 21.7885C87.6564 22.2677 87.9336 23.0203 87.9336 24.0463V29.8666H86.64ZM83.9448 28.6166C84.6019 28.6166 85.1281 28.4317 85.5234 28.062C85.9238 27.687 86.124 27.1635 86.124 26.4916V25.7416L85.0305 25.7885C84.1783 25.8198 83.5572 25.9656 83.167 26.226C82.782 26.4812 82.5895 26.8745 82.5895 27.4057C82.5895 27.7911 82.7024 28.0906 82.9283 28.3041C83.1542 28.5125 83.493 28.6166 83.9448 28.6166Z" fill="white"/>
<path d="M92.0325 29.8666H90.2229V17.7104H92.0325V29.8666Z" fill="white"/>
<path d="M96.2007 29.8666H94.391V17.7104H96.2007V29.8666Z" fill="white"/>
<path d="M102.279 30.0229C100.954 30.0229 99.9171 29.6323 99.1675 28.851C98.4231 28.0646 98.051 26.9838 98.051 25.6088C98.051 24.1974 98.3975 23.088 99.0905 22.2807C99.7836 21.4734 100.736 21.0698 101.947 21.0698C103.072 21.0698 103.96 21.4161 104.612 22.1088C105.264 22.8015 105.59 23.7547 105.59 24.9682V25.9604H99.9145C99.9402 26.7989 100.163 27.4448 100.584 27.8979C101.005 28.3458 101.598 28.5698 102.363 28.5698C102.866 28.5698 103.334 28.5229 103.765 28.4291C104.201 28.3302 104.668 28.1687 105.166 27.9448V29.437C104.725 29.6505 104.278 29.8015 103.826 29.8901C103.375 29.9786 102.859 30.0229 102.279 30.0229ZM101.947 22.4604C101.372 22.4604 100.91 22.6453 100.561 23.0151C100.217 23.3849 100.012 23.9239 99.9453 24.6323H103.811C103.801 23.9187 103.631 23.3797 103.303 23.0151C102.974 22.6453 102.522 22.4604 101.947 22.4604Z" fill="white"/>
<path d="M111.729 21.0698C112.094 21.0698 112.394 21.0958 112.63 21.1479L112.453 22.8588C112.196 22.7963 111.93 22.7651 111.652 22.7651C110.928 22.7651 110.341 23.0047 109.889 23.4838C109.442 23.963 109.219 24.5854 109.219 25.351V29.8666H107.409V21.226H108.826L109.065 22.7495H109.157C109.44 22.2338 109.807 21.825 110.259 21.5229C110.715 21.2208 111.206 21.0698 111.729 21.0698Z" fill="white"/>
<path d="M112.686 21.226H114.658L116.39 26.1245C116.652 26.8224 116.827 27.4786 116.914 28.0932H116.976C117.022 27.8067 117.106 27.4604 117.23 27.0541C117.353 26.6427 118.005 24.7 119.186 21.226H121.142L117.499 31.0151C116.837 32.812 115.733 33.7104 114.188 33.7104C113.788 33.7104 113.397 33.6661 113.017 33.5776V32.1245C113.29 32.187 113.6 32.2182 113.949 32.2182C114.822 32.2182 115.435 31.7052 115.79 30.6791L116.105 29.8666L112.686 21.226Z" fill="white"/>
<path d="M45.1676 11.2701C45.1676 12.1998 44.9379 12.9224 44.4784 13.438C44.0215 13.9537 43.3734 14.2115 42.5341 14.2115C41.6844 14.2115 41.0312 13.9563 40.5743 13.4459C40.1199 12.9328 39.8928 12.205 39.8928 11.2623C39.8928 10.3196 40.1212 9.5956 40.5781 9.09039C41.0376 8.58518 41.6921 8.33258 42.5418 8.33258C43.3785 8.33258 44.0254 8.58909 44.4823 9.10211C44.9392 9.61513 45.1676 10.3378 45.1676 11.2701ZM40.8707 11.2701C40.8707 11.9732 41.0106 12.5071 41.2904 12.8716C41.5702 13.2336 41.9847 13.4146 42.5341 13.4146C43.0808 13.4146 43.4928 13.2349 43.77 12.8755C44.0498 12.5162 44.1897 11.981 44.1897 11.2701C44.1897 10.5696 44.0511 10.0383 43.7738 9.67633C43.4992 9.31435 43.0885 9.13336 42.5418 9.13336C41.9899 9.13336 41.5728 9.31435 41.2904 9.67633C41.0106 10.0383 40.8707 10.5696 40.8707 11.2701Z" fill="white"/>
<path d="M48.321 14.1334H47.4008V9.22321H45.7452V8.42242H49.9766V9.22321H48.321V14.1334Z" fill="white"/>
<path d="M55.163 14.1334H54.081L51.7632 11.2388V14.1334H50.843V8.42242H51.7632V11.188L54.0425 8.42242H55.0513L52.7797 11.1802L55.163 14.1334Z" fill="white"/>
<path d="M59.637 10.149C59.637 10.7453 59.4445 11.2024 59.0595 11.5201C58.6744 11.8378 58.1264 11.9966 57.4154 11.9966H56.8301V14.1334H55.9099V8.42242H57.5309C58.2342 8.42242 58.7604 8.56826 59.1095 8.85992C59.4612 9.15159 59.637 9.58128 59.637 10.149ZM56.8301 11.2115H57.3191C57.7914 11.2115 58.138 11.1282 58.3587 10.9615C58.5795 10.7948 58.6898 10.5344 58.6898 10.1802C58.6898 9.85211 58.591 9.60732 58.3934 9.44586C58.1957 9.2844 57.8877 9.20367 57.4693 9.20367H56.8301V11.2115Z" fill="white"/>
<path d="M65.759 11.2701C65.759 12.1998 65.5292 12.9224 65.0698 13.438C64.6129 13.9537 63.9647 14.2115 63.1254 14.2115C62.2757 14.2115 61.6225 13.9563 61.1656 13.4459C60.7112 12.9328 60.4841 12.205 60.4841 11.2623C60.4841 10.3196 60.7125 9.5956 61.1694 9.09039C61.6289 8.58518 62.2834 8.33258 63.1331 8.33258C63.9699 8.33258 64.6167 8.58909 65.0736 9.10211C65.5305 9.61513 65.759 10.3378 65.759 11.2701ZM61.462 11.2701C61.462 11.9732 61.6019 12.5071 61.8817 12.8716C62.1615 13.2336 62.5761 13.4146 63.1254 13.4146C63.6721 13.4146 64.0841 13.2349 64.3613 12.8755C64.6411 12.5162 64.781 11.981 64.781 11.2701C64.781 10.5696 64.6424 10.0383 64.3651 9.67633C64.0905 9.31435 63.6798 9.13336 63.1331 9.13336C62.5812 9.13336 62.1641 9.31435 61.8817 9.67633C61.6019 10.0383 61.462 10.5696 61.462 11.2701Z" fill="white"/>
<path d="M66.9679 8.42242H67.8112V11.3912C67.8112 11.7011 67.8035 12.0149 67.788 12.3326C67.7726 12.6477 67.7611 12.8612 67.7534 12.9732H67.788L70.6642 8.42242H71.7384V14.1334H70.8914V11.188C70.8914 10.7375 70.9158 10.1907 70.9645 9.54742H70.9337L68.046 14.1334H66.9679V8.42242ZM69.3821 7.96539C68.8379 7.96539 68.4387 7.86643 68.1846 7.66852C67.9331 7.468 67.7932 7.13466 67.7649 6.66852H68.5851C68.6005 6.85602 68.6351 7.00185 68.689 7.10602C68.7455 7.21018 68.8251 7.28571 68.9277 7.33258C69.033 7.37685 69.1921 7.39899 69.4052 7.39899C69.6567 7.39899 69.848 7.343 69.9789 7.23102C70.1098 7.11643 70.1893 6.92893 70.2176 6.66852H71.0531C71.0146 7.11643 70.8593 7.44456 70.5872 7.65289C70.3151 7.86123 69.9134 7.96539 69.3821 7.96539Z" fill="white"/>
<path d="M75.1575 14.1334H74.2373V9.22321H72.5816V8.42242H76.8131V9.22321H75.1575V14.1334Z" fill="white"/>
<path d="M80.8636 14.1334H77.6794V8.42242H80.8636V9.21149H78.5996V10.7662H80.7211V11.5474H78.5996V13.3404H80.8636V14.1334Z" fill="white"/>
<path d="M84.1325 8.42242H85.8035C86.5787 8.42242 87.1383 8.53701 87.4822 8.76617C87.8288 8.99534 88.002 9.35732 88.002 9.85211C88.002 10.1854 87.9173 10.4628 87.7479 10.6841C87.5785 10.9055 87.3346 11.0448 87.0164 11.1021V11.1412C87.4117 11.2167 87.7017 11.3664 87.8865 11.5904C88.0739 11.8117 88.1676 12.1125 88.1676 12.4927C88.1676 13.0058 87.9905 13.4081 87.6363 13.6998C87.2846 13.9888 86.7943 14.1334 86.1654 14.1334H84.1325V8.42242ZM85.0527 10.7818H85.9383C86.3233 10.7818 86.6044 10.7206 86.7815 10.5982C86.9586 10.4732 87.0472 10.2623 87.0472 9.96539C87.0472 9.69716 86.9509 9.50315 86.7584 9.38336C86.5684 9.26357 86.2655 9.20367 85.8497 9.20367H85.0527V10.7818ZM85.0527 11.5396V13.3482H86.0307C86.4157 13.3482 86.7058 13.274 86.9008 13.1255C87.0985 12.9745 87.1973 12.7375 87.1973 12.4146C87.1973 12.1177 87.0972 11.8977 86.897 11.7545C86.6968 11.6112 86.3926 11.5396 85.9845 11.5396H85.0527Z" fill="white"/>
</g>
<defs>
<linearGradient id="paint0_linear_104_2289" x1="22.079" y1="7.33337" x2="22.079" y2="32.6667" gradientUnits="userSpaceOnUse">
<stop stop-color="#FB6361"/>
<stop offset="1" stop-color="#ED3E45"/>
</linearGradient>
<clipPath id="clip0_104_2289">
<rect width="133" height="40" fill="white"/>
</clipPath>
</defs>
</svg>
