<svg width="180" height="50" viewBox="0 0 180 50" fill="none" xmlns="http://www.w3.org/2000/svg">
<g clip-path="url(#clip0_421_2355)">
<path d="M23.4521 0.657959C18.8133 0.658662 14.2787 2.07068 10.4219 4.71549C6.56507 7.36028 3.55924 11.1191 1.78447 15.5165C0.00969987 19.914 -0.454305 24.7527 0.451126 29.4207C1.35655 34.0888 3.59076 38.3765 6.87122 41.7419C10.1517 45.1072 14.3311 47.3989 18.8809 48.3272C23.4308 49.2555 28.1467 48.7786 32.4325 46.957C36.7183 45.1355 40.3813 42.0509 42.9585 38.0934C45.5357 34.1359 46.9112 29.4832 46.9112 24.7236C46.9039 18.3427 44.4299 12.2253 40.032 7.71368C35.6339 3.20203 29.6713 0.664543 23.4521 0.657959ZM26.1784 34.1174C23.8364 37.1639 20.4288 39.153 16.6797 39.662C16.6797 39.662 19.4095 38.5957 22.0007 34.2134C24.4811 29.5752 24.6924 26.0707 27.0271 23.0602C30.9728 17.9706 36.0582 19.1755 36.0582 19.1755C35.4726 17.2705 33.7475 16.0976 31.2984 16.2077C30.5017 13.5598 27.0549 12.5788 24.5988 13.8903C22.7732 14.8606 20.8125 16.2681 18.6232 16.2219C18.3791 16.2272 18.135 16.2165 17.8922 16.1899C16.5268 15.974 15.267 15.3077 14.3034 14.2919C14.1509 16.4778 15.5228 18.5251 17.1439 19.2074C19.9153 20.3697 21.8725 18.9586 21.8725 18.9586C20.1221 23.6943 16.9732 27.7503 12.8658 30.5597C8.24117 28.2103 5.19274 23.931 4.55188 18.0345C6.09216 13.4575 9.1659 9.5899 13.2257 7.12066C17.2854 4.65143 22.0676 3.74084 26.7207 4.55108C31.3736 5.36133 35.5951 7.83978 38.6336 11.5451C41.672 15.2503 43.3299 19.9418 43.312 24.784C43.312 25.0115 43.312 25.2355 43.312 25.4628C41.4026 28.2745 38.8293 30.5432 35.8328 32.0568C32.8363 33.5703 29.5146 34.2794 26.1784 34.1174Z" fill="#FF5A1E"/>
<path d="M93.1677 26.7342C93.1677 28.5895 92.7059 30.0112 91.7821 30.9994C90.8584 31.9874 89.6239 32.4744 88.0789 32.4601C86.6933 32.4601 85.6217 32.0383 84.8643 31.1948C84.1068 30.3512 83.7292 29.0848 83.7314 27.3953V18.1721H79.4048V27.9462C79.4048 30.7565 80.1184 32.8629 81.5456 34.2657C82.9729 35.6683 84.9255 36.3698 87.4034 36.3698C88.511 36.3787 89.6097 36.1675 90.6389 35.7478C91.6033 35.3483 92.4676 34.7312 93.1677 33.9423V35.2644C93.1677 37.2145 92.7209 38.6599 91.8272 39.6005C90.9334 40.5412 89.5373 41.0151 87.6391 41.0223C86.6117 41.0282 85.5937 40.8215 84.646 40.4145C83.5913 40.0599 82.6121 39.5026 81.7604 38.7724L79.8101 42.1275C80.9255 43.0715 82.2247 43.7598 83.6206 44.1463C84.9938 44.6194 86.433 44.8595 87.8816 44.8573C94.3041 44.8573 97.5152 41.5032 97.5152 34.7951V18.1721H93.1677V26.7342Z" fill="#FF5A1E"/>
<path d="M121.438 18.1721L114.52 30.0894L107.911 18.1721H103.352V37.2263H107.319V24.5591L113.474 35.2288H115.352L121.615 24.5946V37.2263H125.543L125.509 18.1721H121.438Z" fill="#FF5A1E"/>
<path d="M148.476 22.6661C147.636 21.1978 146.413 19.999 144.946 19.2043C143.366 18.3842 141.621 17.9568 139.85 17.9568C138.08 17.9568 136.334 18.3842 134.754 19.2043C133.287 19.998 132.063 21.1971 131.225 22.6661C130.366 24.1938 129.928 25.9321 129.957 27.6953C129.929 29.4652 130.367 31.2101 131.225 32.7459C132.059 34.2225 133.283 35.4282 134.754 36.2255C136.334 37.0456 138.08 37.473 139.85 37.473C141.621 37.473 143.366 37.0456 144.946 36.2255C146.417 35.4271 147.64 34.2215 148.476 32.7459C149.334 31.2101 149.772 29.4652 149.743 27.6953C149.772 25.9321 149.334 24.1938 148.476 22.6661ZM143.796 32.0136C142.736 33.0673 141.316 33.6564 139.84 33.6564C138.363 33.6564 136.945 33.0673 135.884 32.0136C134.851 30.919 134.337 29.4796 134.338 27.6953C134.341 25.9111 134.857 24.4717 135.884 23.3769C136.946 22.3259 138.365 21.7385 139.84 21.7385C141.316 21.7385 142.734 22.3259 143.796 23.3769C144.84 24.4717 145.362 25.9111 145.362 27.6953C145.362 29.4796 144.84 30.919 143.796 32.0136Z" fill="#FF5A1E"/>
<path d="M67.2267 24.2333L74.7544 13.1938H69.4611L64.3758 20.5938L59.287 13.1938H54.063L61.6599 24.4146L53.4119 36.4279H58.6323L64.3758 28.1251L70.1506 36.4279H72.8906V37.2239H72.8941V42.143H76.76V33.3001H73.3929L67.2267 24.2333Z" fill="#FF5A1E"/>
</g>
<defs>
<clipPath id="clip0_421_2355">
<rect width="150" height="48.6842" fill="white" transform="translate(0 0.657959)"/>
</clipPath>
</defs>
</svg>
